<?xml version="1.0" encoding="UTF-8"?>
<svg id="Layer_2" data-name="Layer 2" xmlns="http://www.w3.org/2000/svg" xmlns:xlink="http://www.w3.org/1999/xlink" viewBox="0 0 575.27 170.36">
  <defs>
    <style>
      .cls-1 {
        fill: url(#linear-gradient);
      }

      .cls-1, .cls-2, .cls-3, .cls-4, .cls-5, .cls-6, .cls-7 {
        stroke-width: 0px;
      }

      .cls-3 {
        fill: url(#linear-gradient-5);
      }

      .cls-4 {
        fill: #e53e5b;
      }

      .cls-5 {
        fill: url(#linear-gradient-2);
      }

      .cls-6 {
        fill: url(#linear-gradient-3);
      }

      .cls-7 {
        fill: url(#linear-gradient-4);
      }
    </style>
    <linearGradient id="linear-gradient" x1="70.93" y1="142.67" x2="70.93" y2="142.61" gradientUnits="userSpaceOnUse">
      <stop offset="0" stop-color="#bf1b66"/>
      <stop offset="1" stop-color="#e53e5b"/>
    </linearGradient>
    <linearGradient id="linear-gradient-2" x1="72.19" y1="33.21" x2="72.19" y2="3.9" xlink:href="#linear-gradient"/>
    <linearGradient id="linear-gradient-3" y1="142.67" y2="142.61" xlink:href="#linear-gradient"/>
    <linearGradient id="linear-gradient-4" x1="70.93" y1="170.36" x2="70.93" y2="19.27" xlink:href="#linear-gradient"/>
    <linearGradient id="linear-gradient-5" x1="69.68" y1="33.21" x2="69.68" y2="3.9" xlink:href="#linear-gradient"/>
  </defs>
  <g id="Layer_1-2" data-name="Layer 1">
    <g>
      <g>
        <polygon class="cls-1" points="70.94 142.64 70.93 142.67 70.92 142.64 70.94 142.64"/>
        <path class="cls-5" d="m77.99,0c.04,6.5-.8,13.01-2.51,19.27-1.13,4.12-2.65,8.13-4.55,11.97-1.9-3.84-3.42-7.85-4.55-11.97,1.6-2,3.12-4.05,4.55-6.18,1.03-1.53,2.01-3.09,2.94-4.69,1.59-2.75,2.96-5.56,4.12-8.4Z"/>
      </g>
      <g>
        <polygon class="cls-6" points="70.94 142.64 70.93 142.67 70.92 142.64 70.94 142.64"/>
        <g>
          <path class="cls-7" d="m137.29,133.98c-8.68,21.2-29.87,36.11-51.6,36.37h-.7s-.18.01-.18.01l-26.19-.02c-.55.01-1.12.02-1.71.02h-.51c-21.81-.16-43.12-15.11-51.83-36.38C-3.72,113.73-.57,88.22,12.61,68.99c6.04-8.8,14.03-16.45,22.26-23.71C12.17,78.36,4.71,106.41,12.72,128.96c8.23,23.19,30.66,34.77,46.53,40.25-14.73-5.2-35.26-15.86-42.55-36.4-9.44-26.63,5.25-62.43,43.55-106.44,1.52-1.62,2.99-3.29,4.41-4.99.54-.6,1.03-1.18,1.58-1.78l-.07-.06c.07-.09.14-.18.21-.27,1.13,4.12,2.65,8.13,4.55,11.97-.25.51-.5,1.02-.77,1.52-2.44,4.62-5.41,9.02-8.61,13.49-4.69,5.89-8.78,11.7-12.32,17.43-1.81,2.82-3.49,5.72-4.99,8.7-.31.61-.6,1.21-.9,1.81-.1.21-.21.41-.31.62-9.33,18.79-12.26,36.6-8.64,53.19,4.47,20.56,17.88,34.42,27.78,42.18-5.42-4.86-24.42-23.79-24.78-50.63-.09-6.44.98-12.89,3-19.33.25,7.65,2.28,15.24,6.09,21.87,5.41,9.4,14.26,16.77,24.44,20.55v.03s.02-.03.02-.03c10.18-3.78,19.03-11.15,24.44-20.55,3.81-6.63,5.84-14.22,6.09-21.87,2.02,6.44,3.09,12.89,3,19.33-.36,26.84-19.36,45.77-24.78,50.63,9.9-7.76,23.31-21.62,27.78-42.18,3.62-16.59.69-34.4-8.64-53.19-.1-.21-.21-.41-.31-.62-.3-.6-.59-1.2-.9-1.81-1.5-2.98-3.18-5.88-4.99-8.7-3.54-5.73-7.63-11.54-12.32-17.43-3.2-4.47-6.17-8.87-8.61-13.49-.27-.5-.52-1.01-.77-1.52,1.9-3.84,3.42-7.85,4.55-11.97.07.09.14.18.21.27l-.07.06c.55.6,1.04,1.18,1.58,1.78,1.42,1.7,2.89,3.37,4.41,4.99,38.3,44.01,52.99,79.81,43.55,106.44-7.29,20.54-27.82,31.2-42.55,36.4,15.87-5.48,38.3-17.06,46.53-40.25,8.01-22.55.55-50.6-22.15-83.68,8.23,7.26,16.22,14.91,22.26,23.71,13.18,19.23,16.33,44.74,8.04,64.99Z"/>
          <path class="cls-3" d="m75.48,19.27c-1.13,4.12-2.65,8.13-4.55,11.97-1.9-3.84-3.42-7.85-4.55-11.97-1.71-6.26-2.55-12.77-2.51-19.27,1.16,2.84,2.53,5.65,4.12,8.4.93,1.6,1.91,3.16,2.94,4.69,1.43,2.13,2.95,4.18,4.55,6.18Z"/>
        </g>
      </g>
    </g>
    <g>
      <g>
        <path class="cls-2" d="m323.37,73.1c-1.65-1.86-3.53-3.39-5.65-4.58-3.92-2.18-8.35-3.27-13.3-3.27-5.69,0-10.81,1.26-15.35,3.77-4.54,2.51-8.11,6.06-10.7,10.64-2.59,4.58-3.88,9.9-3.88,15.96s1.29,11.47,3.88,16.01c2.59,4.54,6.15,8.07,10.7,10.58,4.54,2.51,9.66,3.77,15.35,3.77,5.17,0,9.7-1.09,13.58-3.27,2.36-1.33,4.41-3.09,6.15-5.27v7.77h13.19V42.98h-13.96v30.12Zm-2.05,32.33c-1.59,2.84-3.7,5.03-6.32,6.54-2.62,1.51-5.6,2.27-8.92,2.27s-6.3-.76-8.92-2.27c-2.62-1.51-4.73-3.69-6.32-6.54-1.59-2.84-2.38-6.11-2.38-9.81s.79-7.04,2.38-9.81c1.59-2.77,3.69-4.91,6.32-6.43,2.62-1.51,5.6-2.27,8.92-2.27s6.3.76,8.92,2.27c2.62,1.52,4.73,3.66,6.32,6.43,1.59,2.77,2.38,6.04,2.38,9.81s-.79,6.96-2.38,9.81Z"/>
        <path class="cls-2" d="m398.34,69.19c-4.77-2.62-10.21-3.93-16.35-3.93s-11.45,1.31-16.18,3.93c-4.73,2.62-8.46,6.19-11.19,10.69-2.73,4.51-4.1,9.75-4.1,15.74s1.37,11.05,4.1,15.63c2.73,4.58,6.48,8.18,11.25,10.81,4.77,2.62,10.14,3.93,16.12,3.93s11.49-1.31,16.29-3.93c4.8-2.62,8.55-6.21,11.25-10.75,2.7-4.54,4.04-9.77,4.04-15.68s-1.35-11.23-4.04-15.74c-2.7-4.51-6.43-8.07-11.19-10.69Zm-1,36.24c-1.51,2.84-3.6,5.03-6.26,6.54-2.66,1.51-5.69,2.27-9.09,2.27s-6.21-.76-8.87-2.27c-2.66-1.51-4.77-3.69-6.32-6.54-1.55-2.84-2.33-6.11-2.33-9.81s.78-7.04,2.33-9.81c1.55-2.77,3.66-4.91,6.32-6.43,2.66-1.51,5.65-2.27,8.98-2.27s6.32.76,8.98,2.27c2.66,1.52,4.75,3.66,6.26,6.43,1.51,2.77,2.27,6.04,2.27,9.81s-.76,6.96-2.27,9.81Z"/>
        <path class="cls-2" d="m444.72,79.38c2.73-1.51,5.8-2.27,9.2-2.27,2.95,0,5.71.68,8.26,2.05,2.55,1.37,4.71,3.42,6.48,6.15l10.53-6.21c-2.22-4.51-5.54-7.94-9.97-10.31-4.43-2.36-9.5-3.55-15.18-3.55-6.21,0-11.73,1.31-16.57,3.93-4.84,2.62-8.63,6.19-11.36,10.69-2.73,4.51-4.1,9.75-4.1,15.74s1.37,11.14,4.1,15.68c2.73,4.54,6.52,8.13,11.36,10.75,4.84,2.62,10.36,3.93,16.57,3.93,5.69,0,10.75-1.2,15.18-3.6,4.43-2.4,7.76-5.82,9.97-10.25l-10.53-6.21c-1.77,2.81-3.93,4.9-6.48,6.26-2.55,1.37-5.3,2.05-8.26,2.05-3.4,0-6.47-.76-9.2-2.27-2.73-1.51-4.88-3.67-6.43-6.48-1.55-2.81-2.33-6.1-2.33-9.86s.78-7.04,2.33-9.81c1.55-2.77,3.69-4.91,6.43-6.43Z"/>
        <path class="cls-2" d="m534.71,66.03v29.92c0,3.92-.66,7.2-1.99,9.86-1.33,2.66-3.21,4.66-5.65,5.98-2.44,1.33-5.28,2-8.53,2-4.36,0-7.76-1.31-10.2-3.93-2.44-2.62-3.66-6.56-3.66-11.8v-32.03h-13.96v33.8c0,5.91,1.09,10.81,3.27,14.68,2.18,3.88,5.19,6.76,9.03,8.64,3.84,1.88,8.27,2.83,13.3,2.83,4.58,0,8.79-1.03,12.63-3.1,2.55-1.37,4.69-3.13,6.43-5.26v7.59h13.19v-59.18h-13.85Z"/>
      </g>
      <path class="cls-4" d="m569.4,125.76c-1.63,0-3.01-.59-4.16-1.77-1.15-1.18-1.72-2.62-1.72-4.32s.57-3.21,1.72-4.32c1.14-1.11,2.53-1.66,4.16-1.66s3.01.55,4.16,1.66c1.14,1.11,1.72,2.55,1.72,4.32s-.57,3.14-1.72,4.32c-1.15,1.18-2.53,1.77-4.16,1.77Z"/>
    </g>
    <path class="cls-2" d="m206.08,155.07c-1.38,0-2.5-1.12-2.5-2.5V17.79c0-1.38,1.12-2.5,2.5-2.5s2.5,1.12,2.5,2.5v134.79c0,1.38-1.12,2.5-2.5,2.5Z"/>
  </g>
</svg>