<?xml version="1.0" encoding="UTF-8"?>
<svg id="Layer_2" data-name="Layer 2" xmlns="http://www.w3.org/2000/svg" xmlns:xlink="http://www.w3.org/1999/xlink" viewBox="0 0 141.87 170.36">
  <defs>
    <style>
      .cls-1 {
        fill: url(#linear-gradient);
      }

      .cls-1, .cls-2, .cls-3, .cls-4, .cls-5 {
        stroke-width: 0px;
      }

      .cls-2 {
        fill: url(#linear-gradient-5);
      }

      .cls-3 {
        fill: url(#linear-gradient-2);
      }

      .cls-4 {
        fill: url(#linear-gradient-3);
      }

      .cls-5 {
        fill: url(#linear-gradient-4);
      }
    </style>
    <linearGradient id="linear-gradient" x1="70.93" y1="142.67" x2="70.93" y2="142.61" gradientUnits="userSpaceOnUse">
      <stop offset="0" stop-color="#bf1b66"/>
      <stop offset="1" stop-color="#e53e5b"/>
    </linearGradient>
    <linearGradient id="linear-gradient-2" x1="72.19" y1="33.21" x2="72.19" y2="3.9" xlink:href="#linear-gradient"/>
    <linearGradient id="linear-gradient-3" y1="142.67" y2="142.61" xlink:href="#linear-gradient"/>
    <linearGradient id="linear-gradient-4" x1="70.93" y1="170.36" x2="70.93" y2="19.27" xlink:href="#linear-gradient"/>
    <linearGradient id="linear-gradient-5" x1="69.68" y1="33.21" x2="69.68" y2="3.9" xlink:href="#linear-gradient"/>
  </defs>
  <g id="Layer_1-2" data-name="Layer 1">
    <g>
      <g>
        <polygon class="cls-1" points="70.94 142.64 70.93 142.67 70.92 142.64 70.94 142.64"/>
        <path class="cls-3" d="m77.99,0c.04,6.5-.8,13.01-2.51,19.27-1.13,4.12-2.65,8.13-4.55,11.97-1.9-3.84-3.42-7.85-4.55-11.97,1.6-2,3.12-4.05,4.55-6.18,1.03-1.53,2.01-3.09,2.94-4.69,1.59-2.75,2.96-5.56,4.12-8.4Z"/>
      </g>
      <g>
        <polygon class="cls-4" points="70.94 142.64 70.93 142.67 70.92 142.64 70.94 142.64"/>
        <g>
          <path class="cls-5" d="m137.29,133.98c-8.68,21.2-29.87,36.11-51.6,36.37h-.7s-.18.01-.18.01l-26.19-.02c-.55.01-1.12.02-1.71.02h-.51c-21.81-.16-43.12-15.11-51.83-36.38C-3.72,113.73-.57,88.22,12.61,68.99c6.04-8.8,14.03-16.45,22.26-23.71C12.17,78.36,4.71,106.41,12.72,128.96c8.23,23.19,30.66,34.77,46.53,40.25-14.73-5.2-35.26-15.86-42.55-36.4-9.44-26.63,5.25-62.43,43.55-106.44,1.52-1.62,2.99-3.29,4.41-4.99.54-.6,1.03-1.18,1.58-1.78l-.07-.06c.07-.09.14-.18.21-.27,1.13,4.12,2.65,8.13,4.55,11.97-.25.51-.5,1.02-.77,1.52-2.44,4.62-5.41,9.02-8.61,13.49-4.69,5.89-8.78,11.7-12.32,17.43-1.81,2.82-3.49,5.72-4.99,8.7-.31.61-.6,1.21-.9,1.81-.1.21-.21.41-.31.62-9.33,18.79-12.26,36.6-8.64,53.19,4.47,20.56,17.88,34.42,27.78,42.18-5.42-4.86-24.42-23.79-24.78-50.63-.09-6.44.98-12.89,3-19.33.25,7.65,2.28,15.24,6.09,21.87,5.41,9.4,14.26,16.77,24.44,20.55v.03s.02-.03.02-.03c10.18-3.78,19.03-11.15,24.44-20.55,3.81-6.63,5.84-14.22,6.09-21.87,2.02,6.44,3.09,12.89,3,19.33-.36,26.84-19.36,45.77-24.78,50.63,9.9-7.76,23.31-21.62,27.78-42.18,3.62-16.59.69-34.4-8.64-53.19-.1-.21-.21-.41-.31-.62-.3-.6-.59-1.2-.9-1.81-1.5-2.98-3.18-5.88-4.99-8.7-3.54-5.73-7.63-11.54-12.32-17.43-3.2-4.47-6.17-8.87-8.61-13.49-.27-.5-.52-1.01-.77-1.52,1.9-3.84,3.42-7.85,4.55-11.97.07.09.14.18.21.27l-.07.06c.55.6,1.04,1.18,1.58,1.78,1.42,1.7,2.89,3.37,4.41,4.99,38.3,44.01,52.99,79.81,43.55,106.44-7.29,20.54-27.82,31.2-42.55,36.4,15.87-5.48,38.3-17.06,46.53-40.25,8.01-22.55.55-50.6-22.15-83.68,8.23,7.26,16.22,14.91,22.26,23.71,13.18,19.23,16.33,44.74,8.04,64.99Z"/>
          <path class="cls-2" d="m75.48,19.27c-1.13,4.12-2.65,8.13-4.55,11.97-1.9-3.84-3.42-7.85-4.55-11.97-1.71-6.26-2.55-12.77-2.51-19.27,1.16,2.84,2.53,5.65,4.12,8.4.93,1.6,1.91,3.16,2.94,4.69,1.43,2.13,2.95,4.18,4.55,6.18Z"/>
        </g>
      </g>
    </g>
  </g>
</svg>