<?xml version="1.0" encoding="UTF-8"?>
<svg id="Layer_2" data-name="Layer 2" xmlns="http://www.w3.org/2000/svg" viewBox="0 0 379.96 456.26">
  <defs>
    <style>
      .cls-1 {
        fill: #fff;
        stroke-width: 0px;
      }
    </style>
  </defs>
  <g id="Layer_1-2" data-name="Layer 1">
    <g>
      <g>
        <polygon class="cls-1" points="190 382.02 189.98 382.1 189.95 382.02 190 382.02"/>
        <path class="cls-1" d="m208.89,0c.11,17.41-2.14,34.84-6.72,51.61-3.03,11.03-7.1,21.77-12.19,32.06-5.09-10.28-9.16-21.02-12.19-32.06,4.29-5.36,8.36-10.85,12.19-16.55,2.76-4.1,5.38-8.28,7.87-12.56,4.26-7.37,7.93-14.89,11.03-22.5Z"/>
      </g>
      <g>
        <polygon class="cls-1" points="190 382.02 189.98 382.1 189.95 382.02 190 382.02"/>
        <g>
          <path class="cls-1" d="m367.7,358.83c-23.25,56.78-80,96.71-138.2,97.41h-.62l-1.26.03h-.48l-70.14-.05c-1.47.03-3,.05-4.58.05l-1.37-.03c-58.41-.4-115.48-40.44-138.81-97.41-22.2-54.23-13.77-122.55,21.53-174.06,16.18-23.57,37.58-44.06,59.62-63.5-60.8,88.59-80.77,163.72-59.32,224.11,22.04,62.11,82.11,93.12,124.62,107.8-39.45-13.93-94.43-42.48-113.96-97.49-25.28-71.32,14.06-167.2,116.64-285.07,4.07-4.34,8.01-8.81,11.81-13.36,1.45-1.61,2.76-3.16,4.23-4.77l-.19-.16c.19-.24.37-.48.56-.72,3.03,11.03,7.1,21.77,12.19,32.06-.67,1.37-1.34,2.73-2.06,4.07-6.53,12.37-14.49,24.16-23.06,36.13-12.56,15.77-23.51,31.33-33,46.68-4.85,7.55-9.35,15.32-13.36,23.3-.83,1.63-1.61,3.24-2.41,4.85-.27.56-.56,1.1-.83,1.66-24.99,50.32-32.83,98.02-23.14,142.45,11.97,55.06,47.89,92.18,74.4,112.97-14.52-13.02-65.4-63.71-66.37-135.6-.24-17.25,2.62-34.52,8.03-51.77.67,20.49,6.11,40.82,16.31,58.57,14.49,25.18,38.19,44.91,65.46,55.04l.03.08.03-.08c27.26-10.12,50.97-29.86,65.46-55.04,10.2-17.76,15.64-38.08,16.31-58.57,5.41,17.25,8.28,34.52,8.03,51.77-.96,71.88-51.85,122.58-66.37,135.6,26.51-20.78,62.43-57.9,74.4-112.97,9.7-44.43,1.85-92.13-23.14-142.45-.27-.56-.56-1.1-.83-1.66-.8-1.61-1.58-3.21-2.41-4.85-4.02-7.98-8.52-15.75-13.36-23.3-9.48-15.35-20.43-30.91-33-46.68-8.57-11.97-16.52-23.76-23.06-36.13-.72-1.34-1.39-2.71-2.06-4.07,5.09-10.28,9.16-21.02,12.19-32.06.19.24.37.48.56.72l-.19.16c1.47,1.61,2.79,3.16,4.23,4.77,3.8,4.55,7.74,9.03,11.81,13.36,102.58,117.87,141.92,213.75,116.64,285.07-19.52,55.01-74.51,83.56-113.96,97.49,42.5-14.68,102.58-45.69,124.62-107.8,21.45-60.39,1.47-135.52-59.32-224.11,22.04,19.44,43.44,39.93,59.62,63.5,35.3,51.5,43.73,119.82,21.53,174.06Z"/>
          <path class="cls-1" d="m202.16,51.61c-3.03,11.03-7.1,21.77-12.19,32.06-5.09-10.28-9.16-21.02-12.19-32.06-4.58-16.77-6.83-34.2-6.72-51.61,3.11,7.61,6.78,15.13,11.03,22.5,2.49,4.29,5.12,8.46,7.87,12.56,3.83,5.7,7.9,11.2,12.19,16.55Z"/>
        </g>
      </g>
    </g>
  </g>
</svg>